M48
;Layer_Color=9474304
;FILE_FORMAT=2:5
INCH,LZ
;TYPE=PLATED
T1F00S00C0.01181
T2F00S00C0.02756
T4F00S00C0.03543
;TYPE=NON_PLATED
T5F00S00C0.02362
T6F00S00C0.06693
%
T01
X0037795Y003435
X0143602Y0044882
T02
X0080236Y0011811
X0090236
X0100236
X0110236
X0120236
X0130236
X0140236
X0150236
X0160236
T04
X0016043Y0046929
Y0056929
Y0066929
Y0076929
Y0086929
T05
X0218504Y0009843
X0009843
Y0108268
X0218504
T06
X0203307Y0020079
X0037165
M30
