G04*
G04 #@! TF.GenerationSoftware,Altium Limited,Altium Designer,22.4.2 (48)*
G04*
G04 Layer_Color=65535*
%FSLAX25Y25*%
%MOIN*%
G70*
G04*
G04 #@! TF.SameCoordinates,3C072E9B-22AA-40BF-B50C-96CCD76C562D*
G04*
G04*
G04 #@! TF.FilePolarity,Positive*
G04*
G01*
G75*
%ADD10C,0.01000*%
%ADD11C,0.00787*%
D10*
X34409Y8268D02*
X206063D01*
X34409Y108543D02*
X206063D01*
X34409Y8268D02*
Y108543D01*
X206063Y8268D02*
Y108543D01*
X34409Y41535D02*
X206063D01*
D11*
X97933Y67716D02*
Y70865D01*
X99507Y72439D01*
X101082Y70865D01*
Y67716D01*
Y70078D01*
X97933D01*
X105805Y68504D02*
Y71652D01*
X105017Y72439D01*
X103443D01*
X102656Y71652D01*
Y68504D01*
X103443Y67716D01*
X105017D01*
X104230Y69291D02*
X105805Y67716D01*
X105017D02*
X105805Y68504D01*
X107379Y67716D02*
Y72439D01*
X108953Y70865D01*
X110527Y72439D01*
Y67716D01*
X112102D02*
X113676D01*
X112889D01*
Y72439D01*
X112102Y71652D01*
X119186Y72439D02*
X117612Y71652D01*
X116037Y70078D01*
Y68504D01*
X116825Y67716D01*
X118399D01*
X119186Y68504D01*
Y69291D01*
X118399Y70078D01*
X116037D01*
X120760Y71652D02*
X121547Y72439D01*
X123122D01*
X123909Y71652D01*
Y68504D01*
X123122Y67716D01*
X121547D01*
X120760Y68504D01*
Y71652D01*
X128632Y67716D02*
X125483D01*
X128632Y70865D01*
Y71652D01*
X127845Y72439D01*
X126270D01*
X125483Y71652D01*
X130206Y72439D02*
Y71652D01*
X131780Y70078D01*
X133355Y71652D01*
Y72439D01*
X131780Y70078D02*
Y67716D01*
X134929Y70078D02*
X138078D01*
X139652Y67716D02*
Y72439D01*
X142800Y67716D01*
Y72439D01*
X144375D02*
Y67716D01*
X147523D01*
X149098Y72439D02*
Y67716D01*
X150672Y69291D01*
X152246Y67716D01*
Y72439D01*
X34613Y116595D02*
Y112660D01*
X35401Y111872D01*
X36975D01*
X37762Y112660D01*
Y116595D01*
X39336Y111872D02*
X40911D01*
X40123D01*
Y116595D01*
X39336Y115808D01*
M02*
