G04*
G04 #@! TF.GenerationSoftware,Altium Limited,Altium Designer,22.4.2 (48)*
G04*
G04 Layer_Color=32896*
%FSLAX25Y25*%
%MOIN*%
G70*
G04*
G04 #@! TF.SameCoordinates,3C072E9B-22AA-40BF-B50C-96CCD76C562D*
G04*
G04*
G04 #@! TF.FilePolarity,Positive*
G04*
G01*
G75*
%ADD11C,0.00787*%
D11*
X23622Y90748D02*
X38976D01*
X29626Y31398D02*
X35531D01*
X29626D02*
Y43209D01*
X35531D01*
Y31398D02*
Y43209D01*
X11043Y91929D02*
X21043D01*
X11043Y41929D02*
Y91929D01*
X21043Y41929D02*
Y91929D01*
X11043Y41929D02*
X21043D01*
X137303Y28445D02*
X143209D01*
Y16634D02*
Y28445D01*
X137303Y16634D02*
X143209D01*
X137303D02*
Y28445D01*
X147244D02*
X153150D01*
Y16634D02*
Y28445D01*
X147244Y16634D02*
X153150D01*
X147244D02*
Y28445D01*
X157283D02*
X163189D01*
Y16634D02*
Y28445D01*
X157283Y16634D02*
X163189D01*
X157283D02*
Y28445D01*
X111024Y19291D02*
Y25197D01*
X99213Y19291D02*
X111024D01*
X99213D02*
Y25197D01*
X111024D01*
X77264Y29823D02*
X83169D01*
Y18012D02*
Y29823D01*
X77264Y18012D02*
X83169D01*
X77264D02*
Y29823D01*
X60039Y31398D02*
X65945D01*
X60039D02*
Y43209D01*
X65945D01*
Y31398D02*
Y43209D01*
X37402Y84153D02*
Y88876D01*
X35040D01*
X34253Y88089D01*
Y86515D01*
X35040Y85728D01*
X37402D01*
X35827D02*
X34253Y84153D01*
X29530Y88876D02*
X32679D01*
Y84153D01*
X29530D01*
X32679Y86515D02*
X31104D01*
X24807Y88089D02*
X25594Y88876D01*
X27169D01*
X27956Y88089D01*
Y87302D01*
X27169Y86515D01*
X25594D01*
X24807Y85728D01*
Y84941D01*
X25594Y84153D01*
X27169D01*
X27956Y84941D01*
X34351Y78641D02*
X35139Y79428D01*
X36713D01*
X37500Y78641D01*
Y77853D01*
X36713Y77066D01*
X35139D01*
X34351Y76279D01*
Y75492D01*
X35139Y74705D01*
X36713D01*
X37500Y75492D01*
X29629Y78641D02*
X30416Y79428D01*
X31990D01*
X32777Y78641D01*
Y75492D01*
X31990Y74705D01*
X30416D01*
X29629Y75492D01*
X28054Y79428D02*
Y74705D01*
X24906D01*
X34351Y68306D02*
X35139Y69093D01*
X36713D01*
X37500Y68306D01*
Y67519D01*
X36713Y66732D01*
X35139D01*
X34351Y65944D01*
Y65157D01*
X35139Y64370D01*
X36713D01*
X37500Y65157D01*
X32777Y69093D02*
Y64370D01*
X30416D01*
X29629Y65157D01*
Y68306D01*
X30416Y69093D01*
X32777D01*
X28054Y64370D02*
Y67519D01*
X26480Y69093D01*
X24906Y67519D01*
Y64370D01*
Y66732D01*
X28054D01*
X34450Y58365D02*
X35237Y59152D01*
X36811D01*
X37598Y58365D01*
Y55216D01*
X36811Y54429D01*
X35237D01*
X34450Y55216D01*
Y56791D01*
X36024D01*
X32875Y54429D02*
Y59152D01*
X29727Y54429D01*
Y59152D01*
X28153D02*
Y54429D01*
X25791D01*
X25004Y55216D01*
Y58365D01*
X25791Y59152D01*
X28153D01*
X37500Y49408D02*
Y46259D01*
X35926Y44685D01*
X34351Y46259D01*
Y49408D01*
X32777D02*
Y44685D01*
X30416D01*
X29629Y45472D01*
Y48621D01*
X30416Y49408D01*
X32777D01*
X28054D02*
Y44685D01*
X25693D01*
X24906Y45472D01*
Y48621D01*
X25693Y49408D01*
X28054D01*
X44094Y38779D02*
X44881Y39566D01*
X46456D01*
X47243Y38779D01*
Y35630D01*
X46456Y34843D01*
X44881D01*
X44094Y35630D01*
X42520Y38779D02*
X41733Y39566D01*
X40159D01*
X39371Y38779D01*
Y37992D01*
X40159Y37205D01*
X40946D01*
X40159D01*
X39371Y36418D01*
Y35630D01*
X40159Y34843D01*
X41733D01*
X42520Y35630D01*
X67518Y45178D02*
Y49901D01*
X65157D01*
X64370Y49114D01*
Y47539D01*
X65157Y46752D01*
X67518D01*
X65944D02*
X64370Y45178D01*
X60434D02*
Y49901D01*
X62796Y47539D01*
X59647D01*
X135136Y20375D02*
Y25098D01*
X132775D01*
X131988Y24310D01*
Y22736D01*
X132775Y21949D01*
X135136D01*
X133562D02*
X131988Y20375D01*
X130414Y24310D02*
X129627Y25098D01*
X128052D01*
X127265Y24310D01*
Y23523D01*
X128052Y22736D01*
X128839D01*
X128052D01*
X127265Y21949D01*
Y21162D01*
X128052Y20375D01*
X129627D01*
X130414Y21162D01*
X154034Y31201D02*
Y35924D01*
X151673D01*
X150886Y35137D01*
Y33563D01*
X151673Y32776D01*
X154034D01*
X152460D02*
X150886Y31201D01*
X146163D02*
X149311D01*
X146163Y34350D01*
Y35137D01*
X146950Y35924D01*
X148524D01*
X149311Y35137D01*
X171849Y20572D02*
Y25295D01*
X169488D01*
X168701Y24507D01*
Y22933D01*
X169488Y22146D01*
X171849D01*
X170275D02*
X168701Y20572D01*
X167127D02*
X165552D01*
X166339D01*
Y25295D01*
X167127Y24507D01*
X19265Y99008D02*
X20052Y99795D01*
X21626D01*
X22413Y99008D01*
Y95860D01*
X21626Y95072D01*
X20052D01*
X19265Y95860D01*
X17691Y95072D02*
Y99795D01*
X14542Y95072D01*
Y99795D01*
X12968Y95072D02*
X11393D01*
X12180D01*
Y99795D01*
X12968Y99008D01*
X105807Y31003D02*
X106594Y31791D01*
X108168D01*
X108955Y31003D01*
Y27855D01*
X108168Y27068D01*
X106594D01*
X105807Y27855D01*
X101084Y27068D02*
X104233D01*
X101084Y30216D01*
Y31003D01*
X101871Y31791D01*
X103445D01*
X104233Y31003D01*
X88681Y24508D02*
X89468Y23721D01*
Y22146D01*
X88681Y21359D01*
X85532D01*
X84745Y22146D01*
Y23721D01*
X85532Y24508D01*
X84745Y26082D02*
Y27656D01*
Y26869D01*
X89468D01*
X88681Y26082D01*
M02*
