G04*
G04 #@! TF.GenerationSoftware,Altium Limited,Altium Designer,22.4.2 (48)*
G04*
G04 Layer_Color=8388736*
%FSLAX25Y25*%
%MOIN*%
G70*
G04*
G04 #@! TF.SameCoordinates,3C072E9B-22AA-40BF-B50C-96CCD76C562D*
G04*
G04*
G04 #@! TF.FilePolarity,Negative*
G04*
G01*
G75*
G04:AMPARAMS|DCode=12|XSize=141.86mil|YSize=78.87mil|CornerRadius=21.72mil|HoleSize=0mil|Usage=FLASHONLY|Rotation=0.000|XOffset=0mil|YOffset=0mil|HoleType=Round|Shape=RoundedRectangle|*
%AMROUNDEDRECTD12*
21,1,0.14186,0.03543,0,0,0.0*
21,1,0.09843,0.07887,0,0,0.0*
1,1,0.04343,0.04921,-0.01772*
1,1,0.04343,-0.04921,-0.01772*
1,1,0.04343,-0.04921,0.01772*
1,1,0.04343,0.04921,0.01772*
%
%ADD12ROUNDEDRECTD12*%
%ADD13C,0.02375*%
%ADD14C,0.05524*%
%ADD15C,0.06706*%
%ADD16R,0.06706X0.06706*%
D12*
X50157Y23228D02*
D03*
X190315D02*
D03*
D13*
X218504Y108268D02*
D03*
Y9843D02*
D03*
X9843Y108268D02*
D03*
Y9843D02*
D03*
D14*
X80236Y11811D02*
D03*
X90236D02*
D03*
X100236D02*
D03*
X110236D02*
D03*
X140236D02*
D03*
X150236D02*
D03*
X160236D02*
D03*
X120236D02*
D03*
X130236D02*
D03*
D15*
X203307Y20079D02*
D03*
X37165D02*
D03*
X16043Y56929D02*
D03*
Y66929D02*
D03*
Y76929D02*
D03*
Y86929D02*
D03*
D16*
Y46929D02*
D03*
M02*
