G04*
G04 #@! TF.GenerationSoftware,Altium Limited,Altium Designer,22.4.2 (48)*
G04*
G04 Layer_Physical_Order=2*
G04 Layer_Color=16711680*
%FSLAX25Y25*%
%MOIN*%
G70*
G04*
G04 #@! TF.SameCoordinates,3C072E9B-22AA-40BF-B50C-96CCD76C562D*
G04*
G04*
G04 #@! TF.FilePolarity,Positive*
G04*
G01*
G75*
%ADD10C,0.01000*%
%ADD11C,0.00787*%
G04:AMPARAMS|DCode=18|XSize=133.86mil|YSize=70.87mil|CornerRadius=17.72mil|HoleSize=0mil|Usage=FLASHONLY|Rotation=0.000|XOffset=0mil|YOffset=0mil|HoleType=Round|Shape=RoundedRectangle|*
%AMROUNDEDRECTD18*
21,1,0.13386,0.03543,0,0,0.0*
21,1,0.09843,0.07087,0,0,0.0*
1,1,0.03543,0.04921,-0.01772*
1,1,0.03543,-0.04921,-0.01772*
1,1,0.03543,-0.04921,0.01772*
1,1,0.03543,0.04921,0.01772*
%
%ADD18ROUNDEDRECTD18*%
%ADD19C,0.01575*%
%ADD20C,0.04724*%
%ADD21C,0.05906*%
%ADD22R,0.05906X0.05906*%
%ADD23C,0.02362*%
%ADD24R,0.03740X0.03150*%
%ADD25R,0.03150X0.03740*%
%ADD26C,0.03150*%
%ADD27C,0.01968*%
%ADD28C,0.01500*%
G36*
X18454Y88698D02*
X19029Y88197D01*
X19301Y87993D01*
X19563Y87821D01*
X19816Y87680D01*
X20058Y87570D01*
X20290Y87492D01*
X20513Y87445D01*
X20725Y87429D01*
Y86429D01*
X20513Y86414D01*
X20290Y86366D01*
X20058Y86288D01*
X19816Y86178D01*
X19563Y86037D01*
X19301Y85865D01*
X19029Y85661D01*
X18454Y85160D01*
X18152Y84862D01*
Y88996D01*
X18454Y88698D01*
D02*
G37*
G36*
Y78698D02*
X19029Y78197D01*
X19301Y77993D01*
X19563Y77821D01*
X19816Y77680D01*
X20058Y77570D01*
X20290Y77492D01*
X20513Y77445D01*
X20725Y77429D01*
Y76429D01*
X20513Y76414D01*
X20290Y76366D01*
X20058Y76288D01*
X19816Y76178D01*
X19563Y76037D01*
X19301Y75865D01*
X19029Y75661D01*
X18454Y75160D01*
X18152Y74862D01*
Y78996D01*
X18454Y78698D01*
D02*
G37*
G36*
Y68698D02*
X19029Y68197D01*
X19301Y67993D01*
X19563Y67821D01*
X19816Y67680D01*
X20058Y67570D01*
X20290Y67492D01*
X20513Y67445D01*
X20725Y67429D01*
Y66429D01*
X20513Y66413D01*
X20290Y66366D01*
X20058Y66288D01*
X19816Y66178D01*
X19563Y66037D01*
X19301Y65865D01*
X19029Y65661D01*
X18454Y65160D01*
X18152Y64862D01*
Y68996D01*
X18454Y68698D01*
D02*
G37*
G36*
X80230Y45945D02*
X79870Y45931D01*
X79577Y45889D01*
X79352Y45820D01*
X79193Y45722D01*
X79102Y45597D01*
X79078Y45444D01*
X79121Y45263D01*
X79232Y45054D01*
X79409Y44817D01*
X79654Y44553D01*
X76870D01*
X76586Y44817D01*
X76290Y45054D01*
X75983Y45263D01*
X75664Y45444D01*
X75334Y45597D01*
X74992Y45722D01*
X74639Y45820D01*
X74274Y45889D01*
X73898Y45931D01*
X73510Y45945D01*
X75886Y47913D01*
X80230Y45945D01*
D02*
G37*
G36*
X63985Y43512D02*
X64011Y43177D01*
X64055Y42882D01*
X64116Y42626D01*
X64195Y42409D01*
X64291Y42232D01*
X64405Y42094D01*
X64536Y41996D01*
X64684Y41937D01*
X64850Y41917D01*
X61134D01*
X61300Y41937D01*
X61449Y41996D01*
X61580Y42094D01*
X61693Y42232D01*
X61789Y42409D01*
X61868Y42626D01*
X61929Y42882D01*
X61973Y43177D01*
X61999Y43512D01*
X62008Y43886D01*
X63976D01*
X63985Y43512D01*
D02*
G37*
G36*
X63897Y32691D02*
X63812Y32661D01*
X63737Y32610D01*
X63672Y32539D01*
X63617Y32448D01*
X63572Y32337D01*
X63537Y32205D01*
X63512Y32054D01*
X63497Y31881D01*
X63492Y31689D01*
X62492D01*
X62487Y31881D01*
X62472Y32054D01*
X62447Y32205D01*
X62412Y32337D01*
X62367Y32448D01*
X62312Y32539D01*
X62247Y32610D01*
X62172Y32661D01*
X62087Y32691D01*
X61992Y32701D01*
X63992D01*
X63897Y32691D01*
D02*
G37*
G36*
X81014Y30026D02*
X81043Y29689D01*
X81093Y29393D01*
X81161Y29135D01*
X81250Y28918D01*
X81358Y28739D01*
X81486Y28600D01*
X81634Y28501D01*
X81801Y28441D01*
X81988Y28421D01*
X78359Y28433D01*
X78487Y28453D01*
X78602Y28512D01*
X78704Y28610D01*
X78792Y28748D01*
X78866Y28925D01*
X78927Y29142D01*
X78974Y29397D01*
X79008Y29693D01*
X79029Y30027D01*
X79035Y30401D01*
X81004D01*
X81014Y30026D01*
D02*
G37*
G36*
X80413Y27067D02*
X79626D01*
X79623Y27077D01*
X79612Y27095D01*
X79594Y27120D01*
X79499Y27241D01*
X79274Y27507D01*
X80765D01*
X80413Y27067D01*
D02*
G37*
G36*
X56773Y24916D02*
X56827Y24832D01*
X56902Y24758D01*
X56998Y24694D01*
X57113Y24639D01*
X57250Y24595D01*
X57407Y24560D01*
X57584Y24535D01*
X57782Y24521D01*
X58000Y24516D01*
X58221Y23516D01*
X58008Y23511D01*
X57821Y23496D01*
X57658Y23471D01*
X57521Y23436D01*
X57408Y23391D01*
X57320Y23336D01*
X57257Y23271D01*
X57218Y23197D01*
X57205Y23112D01*
X57216Y23017D01*
X56739Y25010D01*
X56773Y24916D01*
D02*
G37*
G36*
X108976Y20388D02*
X108891Y20358D01*
X108816Y20307D01*
X108751Y20236D01*
X108696Y20145D01*
X108651Y20034D01*
X108616Y19902D01*
X108591Y19750D01*
X108576Y19578D01*
X108571Y19386D01*
X107571D01*
X107566Y19578D01*
X107551Y19750D01*
X107526Y19902D01*
X107491Y20034D01*
X107446Y20145D01*
X107391Y20236D01*
X107326Y20307D01*
X107251Y20358D01*
X107166Y20388D01*
X107071Y20398D01*
X109071D01*
X108976Y20388D01*
D02*
G37*
G36*
X103464D02*
X103379Y20358D01*
X103304Y20307D01*
X103239Y20236D01*
X103184Y20145D01*
X103139Y20034D01*
X103104Y19902D01*
X103079Y19750D01*
X103064Y19578D01*
X103059Y19386D01*
X102059D01*
X102054Y19578D01*
X102039Y19750D01*
X102014Y19902D01*
X101979Y20034D01*
X101934Y20145D01*
X101879Y20236D01*
X101814Y20307D01*
X101739Y20358D01*
X101654Y20388D01*
X101559Y20398D01*
X103559D01*
X103464Y20388D01*
D02*
G37*
G36*
X81121Y19392D02*
X81037Y19362D01*
X80962Y19312D01*
X80897Y19242D01*
X80841Y19152D01*
X80796Y19042D01*
X80761Y18912D01*
X80737Y18762D01*
X80721Y18592D01*
X80717Y18402D01*
X79716D01*
X79712Y18592D01*
X79697Y18762D01*
X79672Y18912D01*
X79637Y19042D01*
X79592Y19152D01*
X79536Y19242D01*
X79471Y19312D01*
X79396Y19362D01*
X79312Y19392D01*
X79216Y19402D01*
X81217D01*
X81121Y19392D01*
D02*
G37*
G36*
X102913Y13780D02*
X102795Y13655D01*
X102695Y13530D01*
X102611Y13405D01*
X102543Y13280D01*
X102492Y13156D01*
X102457Y13031D01*
X102439Y12907D01*
X102438Y12784D01*
X102453Y12660D01*
X102484Y12537D01*
X100962Y14059D01*
X101085Y14028D01*
X101209Y14013D01*
X101333Y14014D01*
X101457Y14032D01*
X101581Y14067D01*
X101705Y14118D01*
X101830Y14185D01*
X101955Y14269D01*
X102080Y14370D01*
X102206Y14487D01*
X102913Y13780D01*
D02*
G37*
G36*
X80728Y15357D02*
X80763Y15168D01*
X80821Y14976D01*
X80902Y14779D01*
X81006Y14578D01*
X81134Y14373D01*
X81284Y14164D01*
X81458Y13950D01*
X81655Y13733D01*
X81876Y13512D01*
X78569Y13484D01*
X78787Y13711D01*
X79154Y14149D01*
X79303Y14361D01*
X79430Y14568D01*
X79533Y14771D01*
X79613Y14968D01*
X79671Y15161D01*
X79705Y15349D01*
X79716Y15533D01*
X80717Y15541D01*
X80728Y15357D01*
D02*
G37*
G36*
X108554Y14490D02*
X108683Y14384D01*
X108811Y14294D01*
X108939Y14220D01*
X109065Y14161D01*
X109191Y14119D01*
X109316Y14092D01*
X109440Y14081D01*
X109563Y14087D01*
X109685Y14108D01*
X108065Y12742D01*
X108106Y12856D01*
X108129Y12971D01*
X108136Y13086D01*
X108127Y13202D01*
X108100Y13318D01*
X108057Y13435D01*
X107998Y13552D01*
X107921Y13669D01*
X107827Y13787D01*
X107717Y13905D01*
X108424Y14613D01*
X108554Y14490D01*
D02*
G37*
G36*
X119843Y8065D02*
X119830Y8234D01*
X119792Y8411D01*
X119729Y8596D01*
X119641Y8790D01*
X119528Y8992D01*
X119389Y9202D01*
X119225Y9420D01*
X118822Y9881D01*
X118583Y10124D01*
X121890D01*
X121650Y9881D01*
X121247Y9420D01*
X121083Y9202D01*
X120945Y8992D01*
X120832Y8790D01*
X120743Y8596D01*
X120680Y8411D01*
X120642Y8234D01*
X120630Y8065D01*
X119843D01*
D02*
G37*
G36*
X121063Y15441D02*
X121070Y15202D01*
X121091Y14975D01*
X121127Y14760D01*
X121177Y14558D01*
X121241Y14368D01*
X121319Y14191D01*
X121411Y14026D01*
X121518Y13873D01*
X121639Y13733D01*
X121774Y13604D01*
X118474Y13384D01*
X118592Y13528D01*
X118697Y13683D01*
X118790Y13848D01*
X118871Y14024D01*
X118939Y14210D01*
X118995Y14406D01*
X119039Y14613D01*
X119070Y14830D01*
X119088Y15058D01*
X119095Y15296D01*
X121063Y15441D01*
D02*
G37*
G36*
X140854Y15508D02*
X140866Y15328D01*
X140899Y15142D01*
X140955Y14948D01*
X141033Y14749D01*
X141134Y14542D01*
X141257Y14330D01*
X141402Y14110D01*
X141570Y13884D01*
X141972Y13413D01*
X138669Y13578D01*
X138894Y13788D01*
X139274Y14198D01*
X139428Y14400D01*
X139558Y14599D01*
X139665Y14796D01*
X139748Y14991D01*
X139807Y15183D01*
X139842Y15372D01*
X139854Y15560D01*
X140854Y15508D01*
D02*
G37*
G36*
X139854Y16925D02*
X139849Y17115D01*
X139834Y17285D01*
X139809Y17435D01*
X139774Y17565D01*
X139729Y17675D01*
X139674Y17765D01*
X139609Y17835D01*
X139534Y17885D01*
X139449Y17915D01*
X139354Y17925D01*
X141354D01*
X141259Y17915D01*
X141174Y17885D01*
X141099Y17835D01*
X141034Y17765D01*
X140979Y17675D01*
X140934Y17565D01*
X140899Y17435D01*
X140874Y17285D01*
X140859Y17115D01*
X140854Y16925D01*
X139854D01*
D02*
G37*
G36*
X142785Y46411D02*
X142873Y46337D01*
X142961Y46272D01*
X143050Y46216D01*
X143139Y46168D01*
X143228Y46130D01*
X143318Y46100D01*
X143408Y46079D01*
X143499Y46066D01*
X143591Y46063D01*
X142421Y44894D01*
X142418Y44985D01*
X142406Y45076D01*
X142385Y45166D01*
X142355Y45256D01*
X142316Y45346D01*
X142269Y45435D01*
X142212Y45523D01*
X142147Y45611D01*
X142074Y45699D01*
X141991Y45786D01*
X142698Y46493D01*
X142785Y46411D01*
D02*
G37*
G36*
X148351Y24803D02*
X148343Y24878D01*
X148319Y24945D01*
X148279Y25004D01*
X148223Y25055D01*
X148151Y25098D01*
X148063Y25134D01*
X147959Y25161D01*
X147839Y25181D01*
X147703Y25193D01*
X147551Y25197D01*
Y25984D01*
X147703Y25988D01*
X147839Y26000D01*
X147959Y26020D01*
X148063Y26047D01*
X148151Y26083D01*
X148223Y26126D01*
X148279Y26177D01*
X148319Y26236D01*
X148343Y26303D01*
X148351Y26378D01*
Y24803D01*
D02*
G37*
G36*
X142110Y26303D02*
X142134Y26236D01*
X142174Y26177D01*
X142230Y26126D01*
X142302Y26083D01*
X142390Y26047D01*
X142494Y26020D01*
X142614Y26000D01*
X142750Y25988D01*
X142901Y25984D01*
Y25197D01*
X142750Y25193D01*
X142614Y25181D01*
X142494Y25161D01*
X142390Y25134D01*
X142302Y25098D01*
X142230Y25055D01*
X142174Y25004D01*
X142134Y24945D01*
X142110Y24878D01*
X142102Y24803D01*
Y26378D01*
X142110Y26303D01*
D02*
G37*
G36*
X138410Y18488D02*
X138400Y18583D01*
X138369Y18668D01*
X138319Y18743D01*
X138248Y18808D01*
X138157Y18863D01*
X138046Y18908D01*
X137914Y18943D01*
X137762Y18968D01*
X137590Y18983D01*
X137398Y18988D01*
Y19988D01*
X137590Y19993D01*
X137762Y20008D01*
X137914Y20033D01*
X138046Y20068D01*
X138157Y20113D01*
X138248Y20168D01*
X138319Y20233D01*
X138369Y20308D01*
X138400Y20393D01*
X138410Y20488D01*
Y18488D01*
D02*
G37*
G36*
X150736Y15537D02*
X150748Y15353D01*
X150782Y15165D01*
X150840Y14972D01*
X150921Y14775D01*
X151025Y14573D01*
X151152Y14367D01*
X151302Y14156D01*
X151474Y13941D01*
X151890Y13498D01*
X148583D01*
X148802Y13722D01*
X149171Y14156D01*
X149321Y14367D01*
X149448Y14573D01*
X149552Y14775D01*
X149632Y14972D01*
X149690Y15165D01*
X149725Y15353D01*
X149736Y15537D01*
X150736D01*
D02*
G37*
G36*
X149736Y16925D02*
X149731Y17115D01*
X149716Y17285D01*
X149691Y17435D01*
X149656Y17565D01*
X149611Y17675D01*
X149556Y17765D01*
X149491Y17835D01*
X149416Y17885D01*
X149331Y17915D01*
X149236Y17925D01*
X151236D01*
X151141Y17915D01*
X151056Y17885D01*
X150981Y17835D01*
X150916Y17765D01*
X150861Y17675D01*
X150816Y17565D01*
X150781Y17435D01*
X150756Y17285D01*
X150741Y17115D01*
X150736Y16925D01*
X149736D01*
D02*
G37*
G36*
X152842Y25197D02*
X152690Y25193D01*
X152555Y25181D01*
X152435Y25161D01*
X152331Y25134D01*
X152243Y25098D01*
X152171Y25055D01*
X152115Y25004D01*
X152075Y24945D01*
X152051Y24878D01*
X152043Y24803D01*
Y26378D01*
X152051Y26303D01*
X152075Y26236D01*
X152115Y26177D01*
X152171Y26126D01*
X152243Y26083D01*
X152331Y26047D01*
X152435Y26020D01*
X152555Y26000D01*
X152690Y25988D01*
X152842Y25984D01*
Y25197D01*
D02*
G37*
G36*
X155610Y25984D02*
D01*
D01*
D01*
D01*
D01*
D01*
D01*
D01*
D01*
D01*
X154429Y25197D01*
X154579Y25189D01*
X154713Y25165D01*
X154831Y25126D01*
X154933Y25071D01*
X155020Y25000D01*
X155091Y24913D01*
X155146Y24811D01*
X155185Y24693D01*
X155209Y24559D01*
X155217Y24409D01*
X156004D01*
X156012Y24559D01*
X156035Y24693D01*
X156075Y24811D01*
X156130Y24913D01*
X156201Y25000D01*
X156287Y25071D01*
X156390Y25126D01*
X156508Y25165D01*
X156642Y25189D01*
X156791Y25197D01*
X155610Y25984D01*
D02*
G37*
G36*
X160638Y15556D02*
X160650Y15370D01*
X160685Y15180D01*
X160744Y14988D01*
X160827Y14793D01*
X160933Y14595D01*
X161063Y14395D01*
X161216Y14191D01*
X161393Y13986D01*
X161594Y13777D01*
X161818Y13565D01*
X158514Y13428D01*
X158727Y13664D01*
X159087Y14118D01*
X159233Y14336D01*
X159357Y14548D01*
X159458Y14753D01*
X159537Y14953D01*
X159593Y15146D01*
X159627Y15333D01*
X159638Y15514D01*
X160638Y15556D01*
D02*
G37*
G36*
X159638Y16925D02*
X159633Y17115D01*
X159618Y17285D01*
X159593Y17435D01*
X159558Y17565D01*
X159513Y17675D01*
X159458Y17765D01*
X159393Y17835D01*
X159318Y17885D01*
X159233Y17915D01*
X159138Y17925D01*
X161138D01*
X161043Y17915D01*
X160958Y17885D01*
X160883Y17835D01*
X160818Y17765D01*
X160763Y17675D01*
X160718Y17565D01*
X160683Y17435D01*
X160658Y17285D01*
X160643Y17115D01*
X160638Y16925D01*
X159638D01*
D02*
G37*
G36*
X163094Y18988D02*
X162902Y18983D01*
X162730Y18968D01*
X162578Y18943D01*
X162447Y18908D01*
X162335Y18863D01*
X162244Y18808D01*
X162173Y18743D01*
X162123Y18668D01*
X162092Y18583D01*
X162082Y18488D01*
Y20488D01*
X162092Y20393D01*
X162123Y20308D01*
X162173Y20233D01*
X162244Y20168D01*
X162335Y20113D01*
X162447Y20068D01*
X162578Y20033D01*
X162730Y20008D01*
X162902Y19993D01*
X163094Y19988D01*
Y18988D01*
D02*
G37*
G36*
X157591Y25984D02*
X157743Y25988D01*
X157878Y26000D01*
X157998Y26020D01*
X158102Y26047D01*
X158190Y26083D01*
X158262Y26126D01*
X158318Y26177D01*
X158358Y26236D01*
X158382Y26303D01*
X158390Y26378D01*
Y24803D01*
X158382Y24878D01*
X158358Y24945D01*
X158318Y25004D01*
X158262Y25055D01*
X158190Y25098D01*
X158102Y25134D01*
X157998Y25161D01*
X157878Y25181D01*
X157743Y25193D01*
X157591Y25197D01*
Y25984D01*
D02*
G37*
D10*
X50945Y24016D02*
X60827D01*
X50157Y23228D02*
X50945Y24016D01*
X60827D02*
X62992Y26181D01*
Y34252D01*
X16043Y76929D02*
X111555D01*
X143602Y44882D01*
X150197Y19193D02*
X150236D01*
X160138Y13189D02*
X160236Y13091D01*
X160138Y13189D02*
Y19390D01*
X80216Y11430D02*
Y20965D01*
X166831Y21949D02*
Y37402D01*
X164370Y19488D02*
X166831Y21949D01*
X160236Y19488D02*
X164370D01*
X160138Y19390D02*
X160236Y19488D01*
X150236Y11811D02*
Y19193D01*
X130512Y25591D02*
Y42028D01*
X16043Y66929D02*
X105610D01*
X130512Y42028D01*
Y25591D02*
X136614Y19488D01*
X140256D01*
X117303Y86929D02*
X166831Y37402D01*
X16043Y86929D02*
X117303D01*
X140354Y11929D02*
Y18701D01*
X140256Y18799D02*
X140354Y18701D01*
X140256Y18799D02*
Y19488D01*
X108071Y14259D02*
Y22244D01*
Y14259D02*
X110236Y12094D01*
X102559Y14134D02*
Y22244D01*
X100236Y11811D02*
X102559Y14134D01*
X102165Y22244D02*
X102559D01*
D11*
X140256Y25591D02*
X150197D01*
X155610Y7283D02*
Y25591D01*
X160236D01*
X150197D02*
X155610D01*
X80020Y27067D02*
Y28150D01*
Y27067D02*
X80216Y26870D01*
X120236Y6831D02*
Y11811D01*
Y6831D02*
X122736Y4331D01*
X152657D01*
X155610Y7283D01*
D18*
X50157Y23228D02*
D03*
X190315D02*
D03*
D19*
X218504Y108268D02*
D03*
Y9843D02*
D03*
X9843Y108268D02*
D03*
Y9843D02*
D03*
D20*
X80236Y11811D02*
D03*
X90236D02*
D03*
X100236D02*
D03*
X110236D02*
D03*
X140236D02*
D03*
X150236D02*
D03*
X160236D02*
D03*
X120236D02*
D03*
X130236D02*
D03*
D21*
X203307Y20079D02*
D03*
X37165D02*
D03*
X16043Y56929D02*
D03*
Y66929D02*
D03*
Y76929D02*
D03*
Y86929D02*
D03*
D22*
Y46929D02*
D03*
D23*
X37795Y34350D02*
D03*
X143602Y44882D02*
D03*
D24*
X32579Y34350D02*
D03*
Y40256D02*
D03*
X160236Y19488D02*
D03*
X140256Y25591D02*
D03*
Y19488D02*
D03*
X150197Y25591D02*
D03*
Y19488D02*
D03*
X160236Y25591D02*
D03*
X80216Y26870D02*
D03*
Y20965D02*
D03*
X62992Y34252D02*
D03*
Y40354D02*
D03*
D25*
X108071Y22244D02*
D03*
X102165D02*
D03*
D26*
X37795Y34350D02*
X37795Y34350D01*
X32579Y34350D02*
X37795D01*
D27*
X30020Y46929D02*
X60630D01*
X16043D02*
X30020D01*
X32579Y44370D01*
Y40256D02*
Y44370D01*
X60630Y46929D02*
X68032D01*
X60630D02*
X62992Y44567D01*
Y40354D02*
Y44567D01*
X75886Y46929D02*
X109665D01*
X68032D02*
X75886D01*
X80020Y42795D01*
Y28150D02*
Y42795D01*
X120079Y12500D02*
Y36516D01*
X109665Y46929D02*
X120079Y36516D01*
D28*
X68012Y46949D02*
X68032Y46929D01*
X130236Y11811D02*
X130413Y11634D01*
M02*
